<?xml version="1.0" encoding="UTF-8"?>
<svg width="76px" height="20px" viewBox="0 0 76 20" version="1.1" xmlns="http://www.w3.org/2000/svg" xmlns:xlink="http://www.w3.org/1999/xlink">
    <title>noun_Arrow_941551</title>
    <g id="✅-Homepage" stroke="none" stroke-width="1" fill="none" fill-rule="evenodd">
        <g id="noun_Arrow_941551" fill="#000000" fill-rule="nonzero">
            <path d="M1.1,11.1 L72.5,11.1 L65.7,17.9 C65.3,18.3 65.3,18.9 65.7,19.3 C65.9,19.5 66.2,19.6 66.4,19.6 C66.6,19.6 66.9,19.5 67.1,19.3 L75.6,10.8 C76,10.4 76,9.8 75.6,9.4 L67.1,0.9 C66.7,0.5 66.1,0.5 65.7,0.9 C65.3,1.3 65.3,1.9 65.7,2.3 L72.5,9.1 L1.1,9.1 C0.5,9.1 0.1,9.5 0.1,10.1 C0.1,10.7 0.5,11.1 1.1,11.1 Z" id="Path"></path>
        </g>
    </g>
</svg>